<?xml version="1.0" encoding="UTF-8"?>
<!-- Created with Inkscape (http://www.inkscape.org/) -->
<svg width="1024" height="1024" version="1.1" viewBox="0 0 270.93 270.93" xmlns="http://www.w3.org/2000/svg">
 <path d="m210.54 83.708c17.123-6.8529 30.813 17.631 11.146 23.25" fill="#6ad7e5" stroke="#000" stroke-width=".79375"/>
 <path d="m58.255 82.927c-17.653-3.8851-27.607 15.342-11.529 24.111" fill="#6ad7e5" stroke="#000" stroke-width=".79375"/>
 <g fill="#f6d2a2">
  <path d="m41.054 125.27c-0.49229 0.16156-1.2317-0.44822-1.6838-0.22216-3.4971 1.7486-6.2421 5.1256-9.1089 7.7057-0.49466 0.44519-1.9083 1.8156-1.0173 2.6076 1.09 0.96891 7.1145 0.88472 9.0855 1.1927"/>
  <path d="m209.19 197.61c2.0073 4.0571 21.792 4.3817 21.889 4.1861 1.7157-3.4314-4.9549-10.149-6.6183-13.143"/>
  <path d="m45.883 190.99c-2.7331-1.9971-6.1957 10.291-6.1272 10.337 1.6289 1.086 17.241-0.30983 19.761-2.8297"/>
  <path d="m226.95 125.4c0.31973-0.2976 0.70217-0.68435 1.1906-0.56224 1.1876 0.2969 16.101 9.3817 11.03 10.649-1.6767 0.41917-3.8632 0.7025-5.5893 0.42995-1.256-0.19831-2.5243-0.27963-3.7868-0.3638"/>
 </g>
 <g transform="matrix(2.7849 0 0 2.7849 35.408 57.711)" fill="#6ad7e5">
  <path d="m60.104 4.8978c-4.5253-2.0764-9.378-3.6062-14.452-4.4824-0.0924-0.01691-0.1847 0.025349-0.2323 0.10987-0.6241 1.11-1.3154 2.5581-1.7995 3.6963-5.4572-0.817-10.886-0.817-16.232 0-0.4842-1.1635-1.2006-2.5863-1.8275-3.6963-0.0476-0.0817-0.1399-0.12396-0.2323-0.10987-5.071 0.87338-9.9237 2.4032-14.452 4.4824-0.0392 0.0169-0.0728 0.0451-0.0951 0.0817-9.2046 13.751-11.726 27.165-10.489 40.412 0.005597 0.0648 0.041978 0.1268 0.092353 0.1662 6.0729 4.4598 11.956 7.1673 17.729 8.9619 0.0924 0.0282 0.1903-0.0056 0.2491-0.0817 1.3657-1.865 2.5831-3.8315 3.6269-5.8995 0.0616-0.1211 0.0028-0.2648-0.1231-0.3127-1.931-0.7325-3.7697-1.6256-5.5384-2.6398-0.1399-0.0817-0.1511-0.2818-0.0224-0.3776 0.3722-0.2789 0.7445-0.5691 1.0999-0.8621 0.0643-0.0535 0.1539-0.0648 0.2295-0.031 11.62 5.3051 24.199 5.3051 35.682 0 0.0756-0.0366 0.1652-0.0253 0.2323 0.0282 0.3555 0.293 0.7277 0.586 1.1027 0.8649 0.1287 0.0958 0.1203 0.2959-0.0196 0.3776-1.7687 1.0339-3.6074 1.9073-5.5412 2.637-0.1259 0.0479-0.1819 0.1944-0.1203 0.3155 1.0662 2.0651 2.2836 4.0316 3.6241 5.8967 0.056 0.0789 0.1567 0.1127 0.2491 0.0845 5.8014-1.7946 11.684-4.5021 17.757-8.9619 0.0532-0.0394 0.0868-0.0986 0.0924-0.1634 1.4804-15.315-2.4796-28.618-10.498-40.412-0.0196-0.0394-0.0531-0.0676-0.0923-0.0845zm-36.379 32.428c-3.4983 0-6.3808-3.2117-6.3808-7.156s2.8266-7.156 6.3808-7.156c3.5821 0 6.4367 3.2399 6.3807 7.156 0 3.9443-2.8266 7.156-6.3807 7.156zm23.592 0c-3.4982 0-6.3807-3.2117-6.3807-7.156s2.8265-7.156 6.3807-7.156c3.5822 0 6.4367 3.2399 6.3808 7.156 0 3.9443-2.7986 7.156-6.3808 7.156z" stroke="#000" stroke-width=".28502"/>
  <rect x="10.42" y="19.607" width="47.788" height="20.711"/>
 </g>
 <g>
  <ellipse transform="matrix(.9772 -.21231 .20961 .97779 0 0)" cx="69.245" cy="164" rx="19.421" ry="17.981" fill="#fff" fill-rule="evenodd" stroke="#000" stroke-width=".79375"/>
  <ellipse transform="matrix(.94602 -.32411 .33035 .94386 0 0)" cx="108.48" cy="189.47" rx="19.193" ry="17.439" fill="#fff" fill-rule="evenodd" stroke="#000" stroke-width=".77711"/>
  <ellipse transform="rotate(3.92)" cx="165.51" cy="134.01" rx="5.6772" ry="6.2088"/>
  <ellipse transform="rotate(3.4198)" cx="166.82" cy="136.65" rx="1.3156" ry="1.7967" fill="#fff"/>
 </g>
 <path d="m133.55 173.11c1.8295 0.12948 3.547 0.89264 5.3149 1.2855" fill="none" stroke="#fff" stroke-width=".79375"/>
 <g>
  <ellipse transform="rotate(2.6238)" cx="99.285" cy="142.13" rx="5.6028" ry="6.0387"/>
  <path d="m133.05 172.99c1.1214 3.2456-1.6275 9.7247 1.263 12.133 0.89269 0.74391 2.1341 0.99998 3.2626 0.8119 4.9222-0.82036 3.67-7.4367 3.428-11.066" fill="#f6ffff" stroke="#000" stroke-width=".79375"/>
  <path d="m124.39 175.37c-1.2906 2.4613 1.0035 12.728 5.0969 10.389 4.3087-2.4621 3.5633-8.4582 3.5633-12.765" fill="#f6ffff" stroke="#000" stroke-width=".79375"/>
  <ellipse transform="matrix(.9931 .11729 -.14197 .98987 0 0)" cx="115.2" cy="135.73" rx="1.3812" ry="1.6675" fill="#fff"/>
  <path d="m140.51 162.19c5.7634 0.35616 13.283 11.939 3.6147 13.013-3.9059 0.43399-6.5762-2.7212-10.44-2.424-3.8792 0.2984-8.4606 4.203-12.247 1.5522-6.0709-4.2497-0.10004-11.191 5.0393-12.077" fill="#f6d2a2" stroke="#000" stroke-width=".79375"/>
  <ellipse transform="matrix(.9977 -.06779 .07341 .9973 0 0)" cx="121.32" cy="169.52" rx="8.3351" ry="5.2419"/>
 </g>
 <g fill="#f6d2a2" stroke="#000">
  <path d="m38.332 135.68c-1.3402 5.1005-14.793 3.678-9.3596-0.81029" stroke-width=".79375"/>
  <path d="m40.564 125.03c-4.2366-0.44718-13 1.5216-13.758 6.8296-0.48055 3.3638 1.7632 4.045 3.7868 1.819" stroke-width=".79375"/>
  <path d="m230.13 135.13c1.1692 5.0411 15.64 5.4623 10.241-0.42066" stroke-width=".79702"/>
  <g stroke-width=".79375">
   <path d="m227.78 124.72c4.5038 0.27248 13.769 1.6183 15.248 7.0392 1.0482 3.8436-2.083 3.9273-4.2095 1.8007"/>
   <path d="m44.948 190.5c-5.2629 2.9409-13.268 9.5018-10.033 15.973 0.52617 1.0523 1.7303 1.4235 2.6192 1.2161"/>
   <path d="m59.705 199.11c-5.3379-0.69529-16.686 17.031-21.305 10.103-2.1608-3.2412 0.58696-5.7724 2.2451-8.5359"/>
   <path d="m224.62 189.54c3.3137-0.97026 19.69 18.241 9.0036 18.241"/>
  </g>
  <path d="m209.09 198.78c6.6261-0.85467 18.993 18.079 24.309 10.069 1.201-1.8094-1.8318-6.3677-2.894-7.7901" stroke-width=".78753"/>
 </g>
 <path d="m52.817 92.687c-6.3967-5.4663-11.624 5.6207-3.3238 7.5737" stroke="#000" stroke-width=".79375"/>
 <path d="m218.95 100.04c9.0078-0.75591 4.8122-12.702-3.0168-7.1561" stroke="#000" stroke-width=".79375"/>
</svg>
